<svg width="11" height="10" viewBox="0 0 11 10" fill="none" xmlns="http://www.w3.org/2000/svg">
<path d="M5.22754 0.317017C8.00474 0.317051 10.2051 2.31439 10.2051 4.71838C10.2049 7.12227 8.00465 9.11874 5.22754 9.11877C2.4504 9.11877 0.250151 7.12229 0.25 4.71838C0.25 2.31437 2.4503 0.317017 5.22754 0.317017Z" stroke="white" stroke-width="0.5"/>
<mask id="path-2-inside-1_45_1325" fill="white">
<path d="M8.2714 5.34104C8.09193 5.93625 7.66134 6.45946 7.05661 6.81713C6.45189 7.17481 5.71245 7.34362 4.97052 7.29338C4.22858 7.24315 3.53252 6.97714 3.00679 6.54293C2.48106 6.10872 2.15994 5.53461 2.10084 4.92325C2.04174 4.31189 2.24852 3.70314 2.6842 3.20585C3.11988 2.70856 3.75606 2.35514 4.479 2.2088C5.20193 2.06245 5.96447 2.13272 6.63029 2.40703C7.29612 2.68134 7.8218 3.14182 8.11335 3.70612L7.24026 4.01228C7.03692 3.6187 6.67027 3.29753 6.20588 3.10621C5.74149 2.91488 5.20964 2.86588 4.70542 2.96795C4.2012 3.07002 3.75748 3.31651 3.45361 3.66336C3.14973 4.0102 3.00551 4.43478 3.04673 4.86119C3.08795 5.28759 3.31193 5.68801 3.67861 5.99086C4.04528 6.29371 4.53076 6.47924 5.04824 6.51428C5.56571 6.54932 6.08145 6.43158 6.50322 6.18211C6.925 5.93265 7.22533 5.56772 7.3505 5.15258L8.2714 5.34104Z"/>
</mask>
<path d="M8.2714 5.34104C8.09193 5.93625 7.66134 6.45946 7.05661 6.81713C6.45189 7.17481 5.71245 7.34362 4.97052 7.29338C4.22858 7.24315 3.53252 6.97714 3.00679 6.54293C2.48106 6.10872 2.15994 5.53461 2.10084 4.92325C2.04174 4.31189 2.24852 3.70314 2.6842 3.20585C3.11988 2.70856 3.75606 2.35514 4.479 2.2088C5.20193 2.06245 5.96447 2.13272 6.63029 2.40703C7.29612 2.68134 7.8218 3.14182 8.11335 3.70612L7.24026 4.01228C7.03692 3.6187 6.67027 3.29753 6.20588 3.10621C5.74149 2.91488 5.20964 2.86588 4.70542 2.96795C4.2012 3.07002 3.75748 3.31651 3.45361 3.66336C3.14973 4.0102 3.00551 4.43478 3.04673 4.86119C3.08795 5.28759 3.31193 5.68801 3.67861 5.99086C4.04528 6.29371 4.53076 6.47924 5.04824 6.51428C5.56571 6.54932 6.08145 6.43158 6.50322 6.18211C6.925 5.93265 7.22533 5.56772 7.3505 5.15258L8.2714 5.34104Z" fill="whitr" stroke="white" mask="url(#path-2-inside-1_45_1325)"/>
</svg>
