<svg width="25" height="25" viewBox="0 0 25 25" fill="none" xmlns="http://www.w3.org/2000/svg">
<path fill-rule="evenodd" clip-rule="evenodd" d="M14 2.5C14 2.22386 14.2239 2 14.5 2H19.5C20.8807 2 22 3.11929 22 4.5V20.5C22 21.8807 20.8807 23 19.5 23H14.5C14.2239 23 14 22.7761 14 22.5C14 22.2239 14.2239 22 14.5 22H19.5C20.3284 22 21 21.3284 21 20.5V4.5C21 3.67157 20.3284 3 19.5 3H14.5C14.2239 3 14 2.77614 14 2.5Z" fill="white"/>
<path fill-rule="evenodd" clip-rule="evenodd" d="M11.1464 8.14645C11.3417 7.95118 11.6583 7.95118 11.8536 8.14645L15.8536 12.1464C16.0488 12.3417 16.0488 12.6583 15.8536 12.8536L11.8536 16.8536C11.6583 17.0488 11.3417 17.0488 11.1464 16.8536C10.9512 16.6583 10.9512 16.3417 11.1464 16.1464L14.7929 12.5L11.1464 8.85355C10.9512 8.65829 10.9512 8.34171 11.1464 8.14645Z" fill="white"/>
<path fill-rule="evenodd" clip-rule="evenodd" d="M3 12.5C3 12.2239 3.22386 12 3.5 12H15.5C15.7761 12 16 12.2239 16 12.5C16 12.7761 15.7761 13 15.5 13H3.5C3.22386 13 3 12.7761 3 12.5Z" fill="white"/>
</svg>
