<svg width="15" height="10" viewBox="0 0 18 13" fill="none" xmlns="http://www.w3.org/2000/svg">
<path fill-rule="evenodd" clip-rule="evenodd" d="M3.52886 2.90738C2.96542 2.90738 2.503 3.23293 2.503 3.62961V9.40738C2.503 9.80406 2.96542 10.1296 3.52886 10.1296H14.4714C15.0348 10.1296 15.4973 9.80406 15.4973 9.40738V3.62961C15.4973 3.23293 15.0348 2.90738 14.4714 2.90738H3.52886ZM1.81909 3.62961C1.81909 2.96702 2.58771 2.4259 3.52886 2.4259H14.4714C15.4125 2.4259 16.1812 2.96702 16.1812 3.62961V9.40738C16.1812 10.07 15.4125 10.6111 14.4714 10.6111H3.52886C2.58771 10.6111 1.81909 10.07 1.81909 9.40738V3.62961Z" fill="white"/>
<path fill-rule="evenodd" clip-rule="evenodd" d="M1.88094 3.49156C1.98924 3.38264 2.20246 3.35615 2.35717 3.43239L9.00016 6.70613L15.6431 3.43239C15.7979 3.35615 16.0111 3.38264 16.1194 3.49156C16.2277 3.60048 16.1901 3.75059 16.0353 3.82684L9.19625 7.19721C9.07851 7.25523 8.9218 7.25523 8.80406 7.19721L1.96498 3.82684C1.81026 3.75059 1.77263 3.60048 1.88094 3.49156Z" fill="white"/>
</svg>
