<svg width="19" height="19" viewBox="0 0 19 19" fill="none" xmlns="http://www.w3.org/2000/svg">
<path fill-rule="evenodd" clip-rule="evenodd" d="M9.99871 1.00003C8.75759 0.996791 7.53326 1.28676 6.42544 1.84633L6.42354 1.84728L6.42354 1.84728C3.71359 3.20167 2.00119 5.97066 2.00001 9.00022L2.00001 9.00133C1.99678 10.2424 2.28675 11.4668 2.84631 12.5746C2.90642 12.6936 2.91651 12.8317 2.87436 12.9581L1.29058 17.7095L6.0419 16.1257C6.16837 16.0835 6.30644 16.0936 6.42544 16.1537C7.53326 16.7133 8.75759 17.0033 9.99871 17L9.99982 17C13.0294 16.9989 15.7984 15.2865 17.1528 12.5765L17.1537 12.5746C17.7133 11.4668 18.0033 10.2424 18 9.00133L18.5 9.00003H18V8.51402C17.7698 4.46354 14.5365 1.23029 10.486 1.00003H10L9.99871 1.00003ZM19 8.99872C19 8.99897 19 8.99922 19 8.99947C19.0035 10.3974 18.677 11.7765 18.0469 13.0244C16.5231 16.0724 13.4085 17.9985 10.0008 18C8.67265 18.0034 7.36161 17.7088 6.16386 17.1391L0.658127 18.9744C0.47846 19.0343 0.280376 18.9875 0.14646 18.8536C0.012544 18.7197 -0.0342172 18.5216 0.0256719 18.3419L1.86092 12.8362C1.2912 11.6384 0.996635 10.3274 1.00001 8.99928C1.00001 8.9991 1.00001 8.99891 1.00002 8.99872L1.50001 9.00003L1.00001 8.99984C1.00001 8.99965 1.00001 8.99947 1.00001 8.99928C1.00154 5.5916 2.92755 2.47703 5.97553 0.953251C5.97522 0.95341 5.9749 0.95357 5.97459 0.953729L6.20001 1.40003L5.97648 0.952776C5.97617 0.952934 5.97585 0.953093 5.97553 0.953251C7.2235 0.323089 8.60262 -0.00351256 10.0007 2.84896e-05H10.5C10.5092 2.84896e-05 10.5184 0.000281631 10.5276 0.000787674C15.0978 0.252926 18.7471 3.90221 18.9993 8.47249C18.9998 8.48166 19 8.49084 19 8.50003L19 8.99872ZM10.0008 18C10.0006 18 10.0004 18 10.0002 18L10 17.5L10.0013 18C10.0011 18 10.0009 18 10.0008 18Z" fill="white"/>
<path fill-rule="evenodd" clip-rule="evenodd" d="M4.87144 5.34706C4.84395 4.54142 5.6483 4.0671 6.45082 4.15016L8.14942 4.32598C8.49226 4.36146 8.76296 4.61495 8.79252 4.9282L8.93075 6.39286C8.97204 6.83037 8.8038 7.25907 8.46947 7.56831L8.08708 7.92199C8.01894 7.98502 8.00385 8.07637 8.04371 8.15112C8.23168 8.50358 8.57354 9.10153 8.90202 9.469C9.23049 9.83646 9.80462 10.2632 10.1458 10.5028C10.2182 10.5536 10.3197 10.559 10.4017 10.5114L10.8616 10.2444C11.2636 10.0109 11.7603 9.94962 12.2233 10.0763L13.7735 10.5005C14.105 10.5912 14.3225 10.8838 14.2902 11.1958L14.1412 12.636C14.0601 13.4198 13.3017 14.0462 12.401 13.8178C10.8581 13.4264 8.69458 12.4616 7.02277 10.446C5.39725 8.48628 4.91443 6.607 4.87144 5.34706ZM6.40628 4.58046C5.80826 4.51856 5.32997 4.86519 5.34623 5.34198C5.38633 6.51694 5.83842 8.30688 7.39964 10.1891C8.99304 12.1101 11.0551 13.0291 12.52 13.4007C13.0764 13.5418 13.6083 13.1666 13.6682 12.5871L13.8173 11.1468C13.8281 11.0429 13.7556 10.9453 13.6451 10.9151L12.0949 10.4909C11.7642 10.4004 11.4094 10.4442 11.1222 10.611L10.6624 10.878C10.4194 11.0191 10.0991 11.0114 9.86062 10.844C9.52053 10.6053 8.90442 10.1507 8.53611 9.73865C8.16781 9.32662 7.80463 8.68565 7.61728 8.33435C7.48589 8.088 7.54354 7.80186 7.74561 7.61496L8.128 7.26128C8.36681 7.0404 8.48697 6.73418 8.45748 6.42168L8.31925 4.95702C8.3094 4.8526 8.21917 4.7681 8.10489 4.75627L6.40628 4.58046Z" fill="white"/>
</svg>
