<svg width="18" height="22" viewBox="0 0 18 22" fill="none" xmlns="http://www.w3.org/2000/svg">
<path fill-rule="evenodd" clip-rule="evenodd" d="M4.10571 18.63C4.10571 17.4692 4.94127 16.5282 5.97197 16.5282C7.00268 16.5282 7.83823 17.4692 7.83823 18.63C7.83823 19.7909 7.00268 20.7319 5.97197 20.7319C4.94127 20.7319 4.10571 19.7909 4.10571 18.63ZM5.97197 17.3689C5.35355 17.3689 4.85222 17.9335 4.85222 18.63C4.85222 19.3265 5.35355 19.8911 5.97197 19.8911C6.5904 19.8911 7.09173 19.3265 7.09173 18.63C7.09173 17.9335 6.5904 17.3689 5.97197 17.3689Z" fill="#0D4568"/>
<path fill-rule="evenodd" clip-rule="evenodd" d="M13.0638 18.63C13.0638 17.4692 13.8994 16.5282 14.9301 16.5282C15.9608 16.5282 16.7964 17.4692 16.7964 18.63C16.7964 19.7909 15.9608 20.7319 14.9301 20.7319C13.8994 20.7319 13.0638 19.7909 13.0638 18.63ZM14.9301 17.3689C14.3117 17.3689 13.8103 17.9335 13.8103 18.63C13.8103 19.3265 14.3117 19.8911 14.9301 19.8911C15.5485 19.8911 16.0499 19.3265 16.0499 18.63C16.0499 17.9335 15.5485 17.3689 14.9301 17.3689Z" fill="#0D4568"/>
<path fill-rule="evenodd" clip-rule="evenodd" d="M0.746543 1.39496C0.540401 1.39496 0.373291 1.58316 0.373291 1.81533C0.373291 2.04749 0.540401 2.23569 0.746543 2.23569H3.41941C3.98475 5.84369 4.55619 9.436 5.03842 13.0567C5.17546 14.0856 5.96024 14.8467 6.88403 14.8467H14.4521C15.3417 14.8467 16.1077 14.1395 16.2821 13.1571L17.3565 7.10707C17.4951 6.3267 16.9651 5.59864 16.2585 5.59864H5.34535C5.11919 5.59864 4.91052 5.67348 4.73613 5.8012L4.10013 1.74227C4.06865 1.5414 3.91367 1.39496 3.73256 1.39496H0.746543ZM4.97623 6.9221C4.94238 6.66794 5.11716 6.43937 5.34535 6.43937H16.2585C16.494 6.43937 16.6707 6.68206 16.6245 6.94218L15.5501 12.9922C15.4454 13.5817 14.9859 14.006 14.4521 14.006H6.88403C6.32976 14.006 5.85889 13.5493 5.77667 12.932L4.97623 6.9221Z" fill="#0D4568"/>
</svg>
