<svg width="25" height="25" viewBox="0 0 20 20" fill="none" xmlns="http://www.w3.org/2000/svg">
<path fill-rule="evenodd" clip-rule="evenodd" d="M9.35233 1.94996C9.49674 1.83976 9.69896 1.83976 9.84337 1.94996L17.0418 7.44276C17.1392 7.5171 17.1962 7.63139 17.1962 7.75246V16.384C17.1962 17.4674 16.301 18.3457 15.1966 18.3457H3.99907C2.89475 18.3457 1.99951 17.4674 1.99951 16.384V7.75246C1.99951 7.63139 2.05649 7.5171 2.1539 7.44276L9.35233 1.94996ZM2.79934 7.94435V16.384C2.79934 17.0341 3.33648 17.561 3.99907 17.561H15.1966C15.8592 17.561 16.3964 17.0341 16.3964 16.384V7.94435L9.59785 2.7567L2.79934 7.94435Z" fill="#0D4568"/>
<path fill-rule="evenodd" clip-rule="evenodd" d="M6.79858 10.1066C6.79858 9.88989 6.97763 9.71423 7.1985 9.71423H11.9974C12.2183 9.71423 12.3974 9.88989 12.3974 10.1066V17.9534C12.3974 18.1701 12.2183 18.3458 11.9974 18.3458C11.7766 18.3458 11.5975 18.1701 11.5975 17.9534V10.4989H7.59841V17.9534C7.59841 18.1701 7.41936 18.3458 7.1985 18.3458C6.97763 18.3458 6.79858 18.1701 6.79858 17.9534V10.1066Z" fill="#0D4568"/>
</svg>
