<svg width="18" height="20" viewBox="0 0 18 20" fill="none" xmlns="http://www.w3.org/2000/svg">
<path fill-rule="evenodd" clip-rule="evenodd" d="M10.0188 1.58635C10.1541 1.43313 10.3736 1.43313 10.5089 1.58635L13.2816 4.7251C13.417 4.87832 13.417 5.12674 13.2816 5.27996L5.65663 13.9115C5.59163 13.9851 5.50348 14.0264 5.41155 14.0264H2.63883C2.44741 14.0264 2.29224 13.8508 2.29224 13.6341V10.4953C2.29224 10.3913 2.32875 10.2915 2.39375 10.2179L10.0188 1.58635ZM2.98542 10.6579V13.2417H5.26799L12.5464 5.00253L10.2638 2.41864L2.98542 10.6579Z" fill="#0D4568"/>
<path fill-rule="evenodd" clip-rule="evenodd" d="M2.29224 17.5576C2.29224 17.3409 2.44741 17.1652 2.63883 17.1652H15.1161C15.3075 17.1652 15.4627 17.3409 15.4627 17.5576C15.4627 17.7743 15.3075 17.9499 15.1161 17.9499H2.63883C2.44741 17.9499 2.29224 17.7743 2.29224 17.5576Z" fill="#0D4568"/>
</svg>
