<svg width="20" height="20" viewBox="0 0 20 20" fill="none" xmlns="http://www.w3.org/2000/svg">
<path fill-rule="evenodd" clip-rule="evenodd" d="M11.3875 3.95835C11.3875 3.32073 11.9751 2.80383 12.7 2.80383C13.4248 2.80383 14.0125 3.32073 14.0125 3.95835C14.0125 4.59597 13.4248 5.11286 12.7 5.11286C11.9751 5.11286 11.3875 4.59597 11.3875 3.95835ZM12.7 3.13369C12.1822 3.13369 11.7625 3.5029 11.7625 3.95835C11.7625 4.41379 12.1822 4.783 12.7 4.783C13.2177 4.783 13.6375 4.41379 13.6375 3.95835C13.6375 3.5029 13.2177 3.13369 12.7 3.13369Z" fill="#0D4568"/>
<path fill-rule="evenodd" clip-rule="evenodd" d="M12.7 0.494778C12.3893 0.494778 12.1375 0.716304 12.1375 0.98957V1.04565L12.1374 1.0463C12.1362 1.32897 11.9442 1.58398 11.6488 1.69533C11.6277 1.7033 11.6051 1.70777 11.5822 1.70855C11.2896 1.80667 10.957 1.74694 10.7313 1.55278L10.7299 1.55151L10.7074 1.53171C10.6019 1.4388 10.4586 1.38653 10.3093 1.38653C10.16 1.38653 10.0169 1.43874 9.91136 1.53165C9.80573 1.62446 9.74624 1.75052 9.74624 1.88184C9.74624 2.01317 9.80559 2.1391 9.91121 2.23191L9.93525 2.25305C10.1643 2.45906 10.2288 2.76638 10.0989 3.03055C9.98316 3.30117 9.69208 3.4831 9.36309 3.48987L9.3587 3.48996L9.32495 3.48992C9.01429 3.48992 8.76245 3.71144 8.76245 3.98471C8.76245 4.25797 9.01429 4.4795 9.32495 4.4795H9.38945C9.71047 4.48063 10.0001 4.64916 10.1269 4.90852C10.2594 5.17357 10.1955 5.48293 9.96524 5.68997L9.96379 5.69127L9.94128 5.71105C9.83566 5.80386 9.77624 5.92986 9.77624 6.06118C9.77624 6.19251 9.83559 6.31844 9.94121 6.41125C10.0467 6.50416 10.19 6.5565 10.3393 6.5565C10.4886 6.5565 10.6318 6.50429 10.7373 6.41138L10.7613 6.39024C10.9955 6.18872 11.3449 6.13202 11.6452 6.24632C11.9529 6.34809 12.1597 6.60413 12.1674 6.89353L12.1675 6.89738L12.1675 6.92707C12.1675 7.20034 12.4193 7.42186 12.73 7.42186C13.0406 7.42186 13.2925 7.20034 13.2925 6.92707V6.87099L13.2925 6.87034C13.2937 6.58797 13.4853 6.3332 13.7802 6.22166C14.0815 6.10507 14.4332 6.16133 14.6686 6.36385L14.67 6.36513L14.6925 6.38492C14.798 6.47784 14.9413 6.53011 15.0906 6.53011C15.2399 6.53011 15.383 6.4779 15.4885 6.38499C15.5942 6.29218 15.6537 6.16612 15.6537 6.0348C15.6537 5.90347 15.5943 5.77754 15.4887 5.68473L15.4647 5.66359C15.2344 5.45654 15.1705 5.14717 15.303 4.88211C15.4298 4.62276 15.7194 4.45424 16.0405 4.45311L16.0412 4.45311L16.075 4.45311C16.3856 4.45311 16.6375 4.23159 16.6375 3.95832C16.6375 3.68505 16.3856 3.46353 16.075 3.46353H16.0112L16.0105 3.46353C15.6891 3.4624 15.3992 3.29352 15.2726 3.03371C15.2636 3.01512 15.2585 2.99524 15.2576 2.97507C15.146 2.71769 15.2139 2.42516 15.4347 2.22667L15.4361 2.22537L15.4586 2.20559C15.5642 2.11278 15.6237 1.98678 15.6237 1.85546C15.6237 1.72413 15.5643 1.5982 15.4587 1.50539C15.3532 1.41248 15.2099 1.36014 15.0606 1.36014C14.9113 1.36014 14.7681 1.41235 14.6626 1.50526L14.6386 1.5264C14.4032 1.72893 14.0515 1.78518 13.7502 1.6686C13.4553 1.55706 13.2637 1.30229 13.2625 1.01992L13.2625 1.01926V0.98957C13.2625 0.716304 13.0106 0.494778 12.7 0.494778ZM11.7625 0.98957C11.7625 0.534127 12.1822 0.164917 12.7 0.164917C13.2177 0.164917 13.6375 0.534127 13.6375 0.98957V1.01889C13.6383 1.16997 13.7409 1.30623 13.8988 1.36575L13.9007 1.36645C14.0617 1.42895 14.2496 1.39914 14.3757 1.29117L14.3973 1.27214C14.5731 1.11729 14.8118 1.03028 15.0606 1.03028C15.3093 1.03028 15.5479 1.11724 15.7237 1.27201C15.8997 1.42669 15.9987 1.63658 15.9987 1.85546C15.9987 2.07433 15.8997 2.28422 15.7237 2.4389L15.7021 2.45793C15.5793 2.56879 15.5454 2.73414 15.6165 2.87575C15.6253 2.89325 15.6305 2.91192 15.632 2.93094C15.7057 3.05432 15.8513 3.133 16.0116 3.13367H16.075C16.5927 3.13367 17.0125 3.50288 17.0125 3.95832C17.0125 4.41376 16.5927 4.78297 16.075 4.78297H16.0416C15.8699 4.78369 15.715 4.87399 15.6473 5.01287L15.6465 5.0145C15.5754 5.15612 15.6093 5.32147 15.7321 5.43233L15.7537 5.45135C15.9298 5.60603 16.0287 5.81593 16.0287 6.0348C16.0287 6.25364 15.9298 6.4635 15.7538 6.61817C15.5779 6.77298 15.3394 6.85997 15.0906 6.85997C14.8418 6.85997 14.6031 6.77296 14.4273 6.61811L14.4057 6.59908C14.2796 6.49112 14.0917 6.46129 13.9307 6.52379L13.9288 6.52451C13.7709 6.58403 13.6683 6.72028 13.6675 6.87136V6.92707C13.6675 7.38251 13.2477 7.75172 12.73 7.75172C12.2122 7.75172 11.7925 7.38251 11.7925 6.92707V6.89949C11.7875 6.74449 11.6758 6.60765 11.5102 6.55409C11.5065 6.55289 11.5029 6.55158 11.4992 6.55018C11.3383 6.48768 11.1503 6.5175 11.0243 6.62546L11.0026 6.6445C10.8268 6.79935 10.5881 6.88636 10.3393 6.88636C10.0905 6.88636 9.85189 6.79935 9.67604 6.6445C9.5001 6.48983 9.40124 6.27999 9.40124 6.06118C9.40124 5.84231 9.50015 5.63242 9.67619 5.47774L9.69782 5.45871C9.82056 5.34786 9.85447 5.1825 9.78341 5.04089L9.7826 5.03927C9.71493 4.90039 9.56003 4.81008 9.38828 4.80936H9.32495C8.80718 4.80936 8.38745 4.44015 8.38745 3.98471C8.38745 3.52927 8.80718 3.16006 9.32495 3.16006H9.35631C9.53252 3.15572 9.68808 3.05745 9.74898 2.91181C9.75034 2.90854 9.75182 2.90532 9.75341 2.90214C9.82447 2.76053 9.79056 2.59517 9.66782 2.48431L9.64619 2.46529C9.47015 2.31061 9.37124 2.10071 9.37124 1.88184C9.37124 1.663 9.47012 1.45314 9.64612 1.29847C9.82196 1.14366 10.0605 1.05667 10.3093 1.05667C10.5581 1.05667 10.7968 1.14368 10.9726 1.29853L10.9942 1.31756C11.1203 1.42552 11.3082 1.45535 11.4692 1.39285C11.4891 1.38513 11.5104 1.38052 11.532 1.3792C11.6722 1.31434 11.7617 1.18626 11.7625 1.04528V0.98957Z" fill="#0D4568"/>
<path d="M8.56394 13.5006C8.56394 13.5006 12.0453 12.6374 12.5095 11.7972C12.9738 10.9571 12.5095 10.1474 12.0368 10.1474C11.5641 10.1474 8.09119 10.7509 7.61845 10.7509C7.1457 10.7509 5.72746 9.65103 3.83648 10.7509C1.94549 11.8508 2.10771 12.8824 1 14.6005L2.89098 19C2.89098 19 7.1457 15.7006 9.03668 16.2506C9.03668 16.2506 12.8187 15.7006 13.7641 15.1507C14.7096 14.6008 18.9644 9.65117 18.9644 9.65117C18.9644 9.65117 19.3555 7.4653 17.5461 8.00147L14.2369 10.7509" stroke="#0D4568" stroke-width="0.5"/>
</svg>
