<svg width="20" height="20" viewBox="0 0 20 20" fill="none" xmlns="http://www.w3.org/2000/svg">
<path fill-rule="evenodd" clip-rule="evenodd" d="M13.625 4.75449C13.625 4.11687 13.0374 3.59998 12.3125 3.59998C11.5876 3.59998 11 4.11687 11 4.75449C11 5.39211 11.5876 5.909 12.3125 5.909C13.0374 5.909 13.625 5.39211 13.625 4.75449ZM12.3125 3.92984C12.8303 3.92984 13.25 4.29905 13.25 4.75449C13.25 5.20993 12.8303 5.57914 12.3125 5.57914C11.7947 5.57914 11.375 5.20993 11.375 4.75449C11.375 4.29905 11.7947 3.92984 12.3125 3.92984Z" fill="#0D4568" stroke="#0D4568" stroke-width="0.5" stroke-linecap="round" stroke-linejoin="round"/>
<path fill-rule="evenodd" clip-rule="evenodd" d="M12.3125 1.32986C12.0018 1.32986 11.75 1.55139 11.75 1.82465V1.88073C11.7487 2.1634 11.5567 2.41906 11.2614 2.53041C11.2402 2.53838 11.2176 2.54285 11.1947 2.54363C10.9021 2.64176 10.5695 2.58203 10.3439 2.38787L10.3424 2.3866L10.3199 2.3668C10.2144 2.27389 10.0712 2.22162 9.92188 2.22162C9.77258 2.22162 9.62941 2.27382 9.52391 2.36673C9.41828 2.45954 9.35879 2.5856 9.35879 2.71693C9.35879 2.84825 9.41813 2.97419 9.52376 3.06699L9.54779 3.08814C9.77689 3.29415 9.84134 3.60146 9.71141 3.86564C9.5957 4.13625 9.30463 4.31819 8.97563 4.32496L8.97125 4.32504L8.9375 4.325C8.62684 4.325 8.375 4.54653 8.375 4.81979C8.375 5.09306 8.62684 5.31458 8.9375 5.31458H9.002C9.32302 5.31571 9.61265 5.48424 9.73945 5.7436C9.87198 6.00866 9.80802 6.31801 9.57779 6.52505L9.57634 6.52635L9.55383 6.54614C9.44821 6.63894 9.38879 6.76495 9.38879 6.89627C9.38879 7.02759 9.44813 7.15353 9.55376 7.24633C9.65927 7.33924 9.80258 7.39158 9.95187 7.39158C10.1012 7.39158 10.2443 7.33937 10.3498 7.24646L10.3739 7.22532C10.6081 7.0238 10.9575 6.96711 11.2578 7.0814C11.5654 7.18317 11.7723 7.43922 11.7799 7.72861L11.7801 7.73247L11.78 7.76215C11.78 8.03542 12.0318 8.25694 12.3425 8.25694C12.6532 8.25694 12.905 8.03542 12.905 7.76215V7.70608C12.9063 7.42371 13.0979 7.16828 13.3927 7.05674C13.694 6.94015 14.0457 6.99641 14.2811 7.19894L14.2826 7.20021L14.3051 7.22001C14.4106 7.31292 14.5538 7.36519 14.7031 7.36519C14.8524 7.36519 14.9956 7.31298 15.1011 7.22007C15.2067 7.12727 15.2662 7.0012 15.2662 6.86988C15.2662 6.73856 15.2069 6.61262 15.1012 6.51981L15.0772 6.49867C14.847 6.29163 14.783 5.98226 14.9156 5.7172C15.0424 5.45785 15.332 5.28932 15.653 5.2882L15.6875 5.28819C15.9982 5.28819 16.25 5.06667 16.25 4.7934C16.25 4.52014 15.9982 4.29861 15.6875 4.29861H15.6237C15.3024 4.29748 15.0118 4.1286 14.8852 3.86879C14.8761 3.8502 14.871 3.83033 14.8701 3.81016C14.7586 3.55278 14.8265 3.26024 15.0472 3.06175L15.0487 3.06045L15.0712 3.04067C15.1768 2.94786 15.2362 2.82186 15.2362 2.69054C15.2362 2.55922 15.1769 2.43328 15.0712 2.34047C14.9657 2.24756 14.8224 2.19523 14.6731 2.19523C14.5238 2.19523 14.3807 2.24743 14.2752 2.34034L14.2511 2.36149C14.0157 2.56401 13.6641 2.62026 13.3627 2.50368C13.0679 2.39215 12.8763 2.13737 12.875 1.855L12.875 1.82465C12.875 1.55139 12.6232 1.32986 12.3125 1.32986ZM11.375 1.82465C11.375 1.36921 11.7947 1 12.3125 1C12.8303 1 13.25 1.36921 13.25 1.82465V1.85397C13.2508 2.00505 13.3535 2.14131 13.5114 2.20084L13.5132 2.20153C13.6742 2.26403 13.8622 2.23422 13.9882 2.12625L14.0098 2.10723C14.1857 1.95238 14.4243 1.86537 14.6731 1.86537C14.9219 1.86537 15.1604 1.95233 15.3363 2.1071C15.5123 2.26177 15.6112 2.47167 15.6112 2.69054C15.6112 2.90941 15.5123 3.1193 15.3363 3.27398L15.3146 3.29302C15.1919 3.40387 15.158 3.56922 15.229 3.71084C15.2378 3.72833 15.2431 3.74701 15.2446 3.76603C15.3183 3.8894 15.4639 3.96808 15.6242 3.96875H15.6875C16.2053 3.96875 16.625 4.33796 16.625 4.7934C16.625 5.24885 16.2053 5.61806 15.6875 5.61806H15.6542C15.4824 5.61877 15.3275 5.70908 15.2598 5.84796L15.259 5.84958C15.188 5.9912 15.2219 6.15656 15.3446 6.26741L15.3663 6.28644C15.5423 6.44111 15.6412 6.65101 15.6412 6.86988C15.6412 7.08872 15.5423 7.29858 15.3663 7.45326C15.1905 7.60807 14.9519 7.69505 14.7031 7.69505C14.4543 7.69505 14.2157 7.60804 14.0398 7.45319L14.0182 7.43417C13.8922 7.3262 13.7042 7.29637 13.5432 7.35887L13.5414 7.35959C13.3835 7.41911 13.2808 7.55537 13.28 7.70645V7.76215C13.28 8.2176 12.8603 8.58681 12.3425 8.58681C11.8247 8.58681 11.405 8.2176 11.405 7.76215V7.73457C11.4001 7.57957 11.2883 7.44273 11.1228 7.38917C11.1191 7.38797 11.1154 7.38667 11.1118 7.38526C10.9508 7.32276 10.7628 7.35259 10.6368 7.46054L10.6152 7.47958C10.4393 7.63443 10.2007 7.72144 9.95187 7.72144C9.70305 7.72144 9.46444 7.63443 9.28859 7.47958C9.11264 7.32491 9.01379 7.11508 9.01379 6.89627C9.01379 6.6774 9.1127 6.4675 9.28874 6.31283L9.31037 6.2938C9.43311 6.18294 9.46702 6.01759 9.39596 5.87597L9.39515 5.87435C9.32748 5.73547 9.17258 5.64516 9.00083 5.64444H8.9375C8.41973 5.64444 8 5.27523 8 4.81979C8 4.36435 8.41973 3.99514 8.9375 3.99514H8.96886C9.14507 3.9908 9.30063 3.89253 9.36152 3.74689C9.36289 3.74363 9.36437 3.7404 9.36596 3.73723C9.43702 3.59561 9.40311 3.43025 9.28037 3.3194L9.25874 3.30037C9.0827 3.14569 8.98379 2.9358 8.98379 2.71693C8.98379 2.49809 9.08267 2.28822 9.25867 2.13355C9.43451 1.97874 9.67309 1.89176 9.92188 1.89176C10.1707 1.89176 10.4093 1.97876 10.5852 2.13362L10.6068 2.15264C10.7328 2.26061 10.9208 2.29043 11.0818 2.22793C11.1017 2.22021 11.1229 2.2156 11.1445 2.21428C11.2848 2.14943 11.3742 2.02134 11.375 1.88036V1.82465Z" fill="#0D4568" stroke="#0D4568" stroke-width="0.5" stroke-linecap="round" stroke-linejoin="round"/>
<path d="M8.56394 13.5006C8.56394 13.5006 12.0453 12.6374 12.5095 11.7972C12.9738 10.9571 12.5095 10.1474 12.0368 10.1474C11.5641 10.1474 8.09119 10.7509 7.61845 10.7509C7.1457 10.7509 5.72746 9.65103 3.83648 10.7509C1.94549 11.8508 2.10771 12.8824 1 14.6005L2.89098 19C2.89098 19 7.1457 15.7006 9.03668 16.2506C9.03668 16.2506 12.8187 15.7006 13.7641 15.1507C14.7096 14.6008 18.9644 9.65117 18.9644 9.65117C18.9644 9.65117 19.3555 7.4653 17.5461 8.00147L14.2369 10.7509" stroke="#0D4568"/>
</svg>
