<svg width="25" height="25" viewBox="0 0 17 16" fill="none" xmlns="http://www.w3.org/2000/svg">
<path fill-rule="evenodd" clip-rule="evenodd" d="M6.02075 7.99999C6.02075 6.71133 7.13071 5.66666 8.49992 5.66666C9.86912 5.66666 10.9791 6.71133 10.9791 7.99999C10.9791 9.28865 9.86912 10.3333 8.49992 10.3333C7.13071 10.3333 6.02075 9.28865 6.02075 7.99999ZM8.49992 6.33332C7.52191 6.33332 6.72909 7.07952 6.72909 7.99999C6.72909 8.92046 7.52191 9.66666 8.49992 9.66666C9.47792 9.66666 10.2708 8.92046 10.2708 7.99999C10.2708 7.07952 9.47792 6.33332 8.49992 6.33332Z" fill="#0D4568"/>
<path fill-rule="evenodd" clip-rule="evenodd" d="M8.50008 1.00001C7.91328 1.00001 7.43758 1.44773 7.43758 2.00001V2.11334L7.43758 2.11467C7.43516 2.68596 7.07251 3.20134 6.5146 3.42639C6.47469 3.44249 6.432 3.45153 6.38869 3.4531C5.836 3.65142 5.20782 3.53071 4.78159 3.1383L4.7788 3.13573L4.73631 3.09571C4.53702 2.90794 4.26645 2.80229 3.98446 2.80229C3.70246 2.80229 3.43203 2.9078 3.23274 3.09558C3.03322 3.28315 2.92084 3.53793 2.92084 3.80334C2.92084 4.06875 3.03295 4.32328 3.23246 4.51084L3.27786 4.55357C3.71059 4.96993 3.83234 5.59104 3.58691 6.12495C3.36836 6.67188 2.81854 7.03957 2.19711 7.05325L2.18883 7.05343L2.12508 7.05334C1.53828 7.05334 1.06258 7.50106 1.06258 8.05334C1.06258 8.60563 1.53828 9.05334 2.12508 9.05334H2.24691C2.85328 9.05562 3.40037 9.39624 3.63987 9.92041C3.89022 10.4561 3.7694 11.0813 3.33451 11.4998L3.33178 11.5024L3.28927 11.5424C3.08975 11.7299 2.97751 11.9846 2.97751 12.25C2.97751 12.5154 3.08961 12.7699 3.28913 12.9575C3.48842 13.1453 3.75913 13.2511 4.04112 13.2511C4.32312 13.2511 4.59355 13.1456 4.79284 12.9578L4.83824 12.915C5.28062 12.5078 5.94055 12.3932 6.50782 12.6242C7.08894 12.8299 7.47962 13.3473 7.49415 13.9322L7.49434 13.94L7.49425 14C7.49425 14.5523 7.96995 15 8.55675 15C9.14355 15 9.61925 14.5523 9.61925 14V13.8867L9.61925 13.8853C9.62167 13.3147 9.98356 12.7998 10.5405 12.5743C11.1097 12.3387 11.774 12.4524 12.2186 12.8617L12.2214 12.8643L12.2638 12.9043C12.4631 13.0921 12.7337 13.1977 13.0157 13.1977C13.2977 13.1977 13.5681 13.0922 13.7674 12.9044C13.9669 12.7169 14.0793 12.4621 14.0793 12.1967C14.0793 11.9313 13.9672 11.6767 13.7677 11.4892L13.7223 11.4464C13.2874 11.028 13.1666 10.4027 13.417 9.86705C13.6565 9.34289 14.2036 9.00229 14.8099 9.00001L14.8113 9.00001L14.8751 9.00001C15.4619 9.00001 15.9376 8.5523 15.9376 8.00001C15.9376 7.44773 15.4619 7.00001 14.8751 7.00001H14.7547L14.7533 7.00001C14.1463 6.99773 13.5987 6.65642 13.3596 6.13132C13.3424 6.09376 13.3328 6.05358 13.3312 6.01282C13.1205 5.49264 13.2487 4.90142 13.6657 4.50026L13.6684 4.49763L13.7109 4.45764C13.9104 4.27007 14.0227 4.01542 14.0227 3.75001C14.0227 3.4846 13.9106 3.23008 13.711 3.04251C13.5117 2.85473 13.241 2.74896 12.959 2.74896C12.677 2.74896 12.4066 2.85447 12.2073 3.04225L12.1619 3.08498C11.7173 3.49429 11.053 3.60798 10.4838 3.37236C9.9269 3.14695 9.565 2.63204 9.56258 2.06134L9.56258 2.06001V2.00001C9.56258 1.44773 9.08688 1.00001 8.50008 1.00001ZM6.72925 2.00001C6.72925 1.07954 7.52208 0.333344 8.50008 0.333344C9.47809 0.333344 10.2709 1.07954 10.2709 2.00001V2.05926C10.2725 2.3646 10.4664 2.64 10.7646 2.7603L10.7681 2.76171C11.0722 2.88802 11.4273 2.82776 11.6653 2.60956L11.7062 2.57111C12.0383 2.25814 12.489 2.08229 12.959 2.08229C13.4289 2.08229 13.8795 2.25805 14.2116 2.57084C14.5441 2.88346 14.731 3.30766 14.731 3.75001C14.731 4.19236 14.5441 4.61656 14.2116 4.92918L14.1707 4.96765C13.9389 5.19169 13.8749 5.52588 14.0091 5.81209C14.0257 5.84744 14.0356 5.88519 14.0384 5.92363C14.1777 6.17297 14.4527 6.33199 14.7555 6.33334H14.8751C15.8531 6.33334 16.6459 7.07954 16.6459 8.00001C16.6459 8.92048 15.8531 9.66668 14.8751 9.66668H14.8121C14.4877 9.66813 14.1951 9.85063 14.0673 10.1313L14.0658 10.1346C13.9316 10.4208 13.9956 10.755 14.2274 10.9791L14.2683 11.0175C14.6008 11.3301 14.7877 11.7543 14.7877 12.1967C14.7877 12.639 14.6009 13.0631 14.2684 13.3757C13.9363 13.6886 13.4856 13.8644 13.0157 13.8644C12.5457 13.8644 12.095 13.6885 11.7628 13.3756L11.722 13.3371C11.4839 13.1189 11.1289 13.0586 10.8247 13.185L10.8213 13.1864C10.523 13.3067 10.3291 13.5821 10.3276 13.8874V14C10.3276 14.9205 9.53475 15.6667 8.55675 15.6667C7.57874 15.6667 6.78592 14.9205 6.78592 14V13.9443C6.7766 13.631 6.56557 13.3544 6.25283 13.2462C6.24583 13.2438 6.23891 13.2411 6.23208 13.2383C5.92798 13.112 5.57291 13.1723 5.33487 13.3904L5.29399 13.4289C4.96184 13.7419 4.51112 13.9177 4.04112 13.9177C3.57113 13.9177 3.12041 13.7419 2.78826 13.4289C2.45591 13.1163 2.26918 12.6922 2.26918 12.25C2.26918 11.8077 2.45602 11.3835 2.78854 11.0708L2.8294 11.0324C3.06124 10.8083 3.12528 10.4741 2.99107 10.1879L2.98953 10.1847C2.86172 9.90397 2.56913 9.72146 2.2447 9.72001H2.12508C1.14708 9.72001 0.354248 8.97382 0.354248 8.05334C0.354248 7.13287 1.14708 6.38668 2.12508 6.38668H2.18431C2.51715 6.37791 2.81099 6.1793 2.92602 5.88495C2.92859 5.87836 2.93139 5.87185 2.9344 5.86542C3.06861 5.57921 3.00457 5.24501 2.77273 5.02097L2.73187 4.98251C2.39935 4.6699 2.21251 4.24569 2.21251 3.80334C2.21251 3.36106 2.3993 2.93691 2.73173 2.62431C3.06387 2.31143 3.51453 2.13563 3.98446 2.13563C4.45445 2.13563 4.90517 2.31148 5.23732 2.62444L5.27818 2.6629C5.51622 2.8811 5.87131 2.94137 6.17541 2.81506C6.21298 2.79945 6.25308 2.79014 6.29392 2.78747C6.55885 2.65639 6.72781 2.39753 6.72925 2.1126V2.00001Z" fill="#0D4568"/>
</svg>
