<svg width="25" height="25" viewBox="0 0 20 20" fill="none" xmlns="http://www.w3.org/2000/svg">
<path fill-rule="evenodd" clip-rule="evenodd" d="M18.7976 4.90782C18.9538 5.06104 18.9538 5.30946 18.7976 5.46268L11.1993 12.9172C11.0431 13.0704 10.7899 13.0704 10.6337 12.9172L6.9174 9.2712L1.20149 14.8789C1.04532 15.0321 0.792106 15.0321 0.635931 14.8789C0.479755 14.7257 0.479755 14.4773 0.635931 14.3241L6.63462 8.43891C6.79079 8.28569 7.04401 8.28569 7.20018 8.43891L10.9165 12.0849L18.2321 4.90782C18.3883 4.7546 18.6415 4.7546 18.7976 4.90782Z" fill="#0D4568"/>
<path fill-rule="evenodd" clip-rule="evenodd" d="M13.3159 5.18525C13.3159 4.96857 13.495 4.79291 13.7158 4.79291H18.5148C18.7356 4.79291 18.9147 4.96857 18.9147 5.18525V9.89337C18.9147 10.1101 18.7356 10.2857 18.5148 10.2857C18.2939 10.2857 18.1149 10.1101 18.1149 9.89337V5.57759H13.7158C13.495 5.57759 13.3159 5.40194 13.3159 5.18525Z" fill="#0D4568"/>
</svg>
