<svg width="25" height="30" viewBox="0 0 25 30" fill="none" xmlns="http://www.w3.org/2000/svg">
<g filter="url(#filter0_d_82_1400)">
<path fill-rule="evenodd" clip-rule="evenodd" d="M12.5001 2.25002C8.78367 2.25002 5.77091 5.42134 5.77091 9.33335C5.77091 12.0825 7.45944 14.6893 9.22494 16.651C10.0996 17.6228 10.9756 18.417 11.6334 18.9683C11.962 19.2438 12.2353 19.4579 12.4257 19.6027C12.4521 19.6228 12.4769 19.6415 12.5001 19.6589C12.5232 19.6415 12.5481 19.6228 12.5745 19.6027C12.7649 19.4579 13.0382 19.2438 13.3668 18.9683C14.0246 18.417 14.9006 17.6228 15.7752 16.651C17.5407 14.6893 19.2292 12.0825 19.2292 9.33335C19.2292 5.42134 16.2165 2.25002 12.5001 2.25002ZM12.5001 20.1667C12.2805 20.5134 12.2804 20.5133 12.2803 20.5132L12.2798 20.5129L12.2785 20.512L12.2739 20.5087L12.2572 20.4968C12.2428 20.4865 12.2218 20.4714 12.1947 20.4516C12.1405 20.4121 12.0618 20.354 11.9622 20.2782C11.7629 20.1268 11.4796 19.9047 11.1402 19.6202C10.4621 19.0518 9.55682 18.2314 8.65023 17.2241C6.85323 15.2274 4.97925 12.4175 4.97925 9.33335C4.97925 4.9611 8.34644 1.41669 12.5001 1.41669C16.6537 1.41669 20.0209 4.9611 20.0209 9.33335C20.0209 12.4175 18.1469 15.2274 16.3499 17.2241C15.4433 18.2314 14.5381 19.0518 13.8599 19.6202C13.5205 19.9047 13.2372 20.1268 13.038 20.2782C12.9384 20.354 12.8597 20.4121 12.8055 20.4516C12.7784 20.4714 12.7574 20.4865 12.7429 20.4968L12.7262 20.5087L12.7216 20.512L12.7203 20.5129L12.7199 20.5132C12.7198 20.5133 12.7197 20.5134 12.5001 20.1667ZM12.5001 20.1667L12.7197 20.5134C12.5867 20.6067 12.4135 20.6067 12.2805 20.5134L12.5001 20.1667Z" fill="#0D4568"/>
<path d="M12.5001 20.1667C12.2805 20.5134 12.2804 20.5133 12.2803 20.5132L12.2798 20.5129L12.2785 20.512L12.2739 20.5087L12.2572 20.4968C12.2428 20.4865 12.2218 20.4714 12.1947 20.4516C12.1405 20.4121 12.0618 20.354 11.9622 20.2782C11.7629 20.1268 11.4796 19.9047 11.1402 19.6202C10.4621 19.0518 9.55682 18.2314 8.65023 17.2241C6.85323 15.2274 4.97925 12.4175 4.97925 9.33335C4.97925 4.9611 8.34644 1.41669 12.5001 1.41669C16.6537 1.41669 20.0209 4.9611 20.0209 9.33335C20.0209 12.4175 18.1469 15.2274 16.3499 17.2241C15.4433 18.2314 14.5381 19.0518 13.8599 19.6202C13.5205 19.9047 13.2372 20.1268 13.038 20.2782C12.9384 20.354 12.8597 20.4121 12.8055 20.4516C12.7784 20.4714 12.7574 20.4865 12.7429 20.4968L12.7262 20.5087L12.7216 20.512L12.7203 20.5129L12.7199 20.5132C12.7198 20.5133 12.7197 20.5134 12.5001 20.1667ZM12.5001 20.1667L12.7197 20.5134C12.5867 20.6067 12.4135 20.6067 12.2805 20.5134L12.5001 20.1667ZM5.77091 9.33335C5.77091 5.42134 8.78367 2.25002 12.5001 2.25002C16.2165 2.25002 19.2292 5.42134 19.2292 9.33335C19.2292 12.0825 17.5407 14.6893 15.7752 16.651C14.9006 17.6228 14.0246 18.417 13.3668 18.9683C13.0382 19.2438 12.7649 19.4579 12.5745 19.6027C12.5481 19.6228 12.5232 19.6415 12.5001 19.6589C12.4769 19.6415 12.4521 19.6228 12.4257 19.6027C12.2353 19.4579 11.962 19.2438 11.6334 18.9683C10.9756 18.417 10.0996 17.6228 9.22494 16.651C7.45944 14.6893 5.77091 12.0825 5.77091 9.33335Z" stroke="#0D4568" stroke-linecap="round" stroke-linejoin="round"/>
</g>
<path fill-rule="evenodd" clip-rule="evenodd" d="M9.72925 9.33335C9.72925 7.72252 10.9698 6.41669 12.5001 6.41669C14.0304 6.41669 15.2709 7.72252 15.2709 9.33335C15.2709 10.9442 14.0304 12.25 12.5001 12.25C10.9698 12.25 9.72925 10.9442 9.72925 9.33335ZM12.5001 7.25002C11.407 7.25002 10.5209 8.18276 10.5209 9.33335C10.5209 10.4839 11.407 11.4167 12.5001 11.4167C13.5931 11.4167 14.4792 10.4839 14.4792 9.33335C14.4792 8.18276 13.5931 7.25002 12.5001 7.25002Z" fill="#0D4568"/>
<defs>
<filter id="filter0_d_82_1400" x="0.479248" y="0.916687" width="24.0417" height="28.1667" filterUnits="userSpaceOnUse" color-interpolation-filters="sRGB">
<feFlood flood-opacity="0" result="BackgroundImageFix"/>
<feColorMatrix in="SourceAlpha" type="matrix" values="0 0 0 0 0 0 0 0 0 0 0 0 0 0 0 0 0 0 127 0" result="hardAlpha"/>
<feOffset dy="4"/>
<feGaussianBlur stdDeviation="2"/>
<feComposite in2="hardAlpha" operator="out"/>
<feColorMatrix type="matrix" values="0 0 0 0 0 0 0 0 0 0 0 0 0 0 0 0 0 0 0.25 0"/>
<feBlend mode="normal" in2="BackgroundImageFix" result="effect1_dropShadow_82_1400"/>
<feBlend mode="normal" in="SourceGraphic" in2="effect1_dropShadow_82_1400" result="shape"/>
</filter>
</defs>
</svg>
