<svg version="1.1" id="Слой_1" xmlns="http://www.w3.org/2000/svg" xmlns:xlink="http://www.w3.org/1999/xlink" x="0px" y="0px"
	 viewBox="0 0 300 30" style="enable-background:new 0 0 300 30;" xml:space="preserve">
<style type="text/css">
	.st0{fill-rule:evenodd;clip-rule:evenodd;fill:#FFFFFF;}
	.st1{fill-rule:evenodd;clip-rule:evenodd;fill:#DA2C23;}
</style>
<path class="st0" d="M62.7,2c-0.2-0.8-1-1.2-1.7-1.1h-3.7c-0.8-0.2-1.5,0.3-1.7,1.1c0,0,0,0,0,0.1L48,23c-0.3,0.9,0,1.4,0.9,1.4h3.5
	c1.6,0,2.1-0.4,2.4-1.4l0.7-2.4h7.1l0.7,2.4c0.3,1.1,0.8,1.4,2.5,1.4h3.5c0.5,0.1,1-0.2,1.1-0.6c0.1-0.3,0-0.5-0.1-0.7L62.7,2z
	 M61.1,15.4H57l1.2-3.9c0.4-1.5,0.6-3.1,0.6-4.6h0.3l0,0.7c0.1,1.4,0.3,2.7,0.7,4L61.1,15.4z M83.5,0.9c-0.6-0.1-1.2,0.2-1.4,0.8
	c0,0.2,0,0.4,0,0.5v7.6c0.2,2.2-0.2,4.4-1.1,6.4c-0.5,1.1-1.4,1.9-2.5,2.5c-1,0.5-1.2,1-0.7,1.9l1.9,3.4c0.5,1,1,1.1,1.9,0.7
	c2.1-1,3.8-2.6,4.9-4.5c1.3-2.2,2-5.6,2-10.3V6.7h4V23c-0.2,0.6,0.2,1.2,0.8,1.4c0.2,0,0.4,0.1,0.6,0h3.7c0.6,0.1,1.3-0.2,1.4-0.9
	c0-0.2,0-0.4,0-0.5V2.3c0.1-0.6-0.3-1.2-0.9-1.4c-0.2,0-0.3,0-0.5,0H83.5L83.5,0.9z M120.3,24.4c5.2,0,8.5-3.1,8.5-8.3
	c0-5.1-3.3-8.1-8.5-8.1h-4V2.3c0.1-0.6-0.2-1.3-0.9-1.4c-0.2,0-0.4,0-0.5,0h-3.7c-0.6-0.1-1.3,0.2-1.4,0.9c0,0.2,0,0.4,0,0.5V23
	c-0.1,0.6,0.2,1.3,0.9,1.4c0.2,0,0.4,0,0.5,0L120.3,24.4L120.3,24.4z M119.6,13.8c1.2-0.1,2.3,0.8,2.5,2c0,0.1,0,0.3,0,0.4
	c0.1,1.3-0.8,2.3-2.1,2.4c-0.1,0-0.2,0-0.4,0h-3.2v-4.8H119.6z M135.9,0.9c-0.6-0.2-1.3,0.2-1.4,0.9c0,0.2,0,0.3,0,0.5v3
	c-0.1,0.6,0.2,1.3,0.9,1.4c0.2,0,0.4,0,0.5,0h4.9V23c-0.2,0.6,0.2,1.2,0.8,1.4c0.2,0,0.4,0.1,0.6,0h3.7c0.6,0.1,1.3-0.2,1.4-0.9
	c0-0.2,0-0.4,0-0.5V6.7h4.8c0.6,0.1,1.3-0.2,1.4-0.9c0-0.2,0-0.4,0-0.5v-3c0.1-0.6-0.3-1.2-0.9-1.4c-0.2,0-0.3,0-0.5,0
	C152.2,0.9,135.9,0.9,135.9,0.9z M174.4,2c-0.2-0.8-1-1.2-1.7-1.1h-3.7c-0.8-0.2-1.5,0.3-1.7,1.1c0,0,0,0,0,0.1l-7.6,21
	c-0.3,0.9,0,1.4,0.9,1.4h3.5c1.6,0,2.1-0.4,2.4-1.4l0.7-2.4h7.1L175,23c0.2,1.1,0.8,1.4,2.5,1.4h3.5c0.5,0.1,1-0.2,1.1-0.6
	c0.1-0.3,0-0.5-0.1-0.7L174.4,2z M172.8,15.4h-4.2l1.2-3.9c0.4-1.5,0.7-3.1,0.6-4.6h0.3l0,0.7c0.1,1.4,0.3,2.7,0.7,4L172.8,15.4z
	 M210.1,0.9c-0.8-0.2-1.6,0.3-1.8,1.1l-5.4,10.7L197.4,2c-0.3-0.8-1.1-1.2-1.9-1.1h-3.1c-0.6-0.2-1.2,0.2-1.4,0.8
	c0,0.2-0.1,0.4,0,0.6V23c-0.1,0.6,0.3,1.2,0.9,1.4c0.2,0,0.3,0,0.5,0h3.4c0.6,0.2,1.2-0.2,1.4-0.8c0-0.2,0-0.4,0-0.6v-4.7
	c-0.1-2.9-0.6-5.9-1.3-8.7h0.3c0.5,1.9,1.2,3.7,2.1,5.4l1.9,3.8c0.2,0.7,0.9,1,1.6,0.9h2.2c0.7,0.1,1.3-0.3,1.6-0.9l1.8-3.8
	c0.3-0.6,0.7-1.6,1.2-2.7c0.4-0.9,0.7-1.8,1-2.7h0.4c-0.9,2.8-1.3,5.7-1.4,8.7V23c-0.2,0.6,0.2,1.2,0.8,1.4c0.2,0,0.4,0,0.6,0h3.6
	c0.6,0.2,1.2-0.2,1.4-0.8c0-0.2,0.1-0.4,0-0.6V2.3c0.2-0.6-0.2-1.2-0.8-1.4c-0.2,0-0.4,0-0.6,0H210.1L210.1,0.9z M227.3,0.9
	c-0.6-0.2-1.3,0.2-1.4,0.9c0,0.2,0,0.3,0,0.5V23c-0.1,0.6,0.2,1.3,0.9,1.4c0.2,0,0.4,0,0.5,0h14.1c0.6,0.1,1.2-0.3,1.4-0.9
	c0-0.2,0-0.3,0-0.5v-3c0.2-0.6-0.2-1.3-0.9-1.4c-0.2,0-0.3,0-0.5,0h-9v-3.2h6.9c0.6,0.1,1.3-0.2,1.4-0.9c0-0.2,0-0.4,0-0.5v-3
	c0.1-0.6-0.3-1.2-0.9-1.4c-0.2,0-0.3,0-0.5,0h-6.9v-3h8.7c0.6,0.1,1.3-0.2,1.4-0.9c0-0.2,0-0.4,0-0.5v-3c0.1-0.6-0.3-1.2-0.9-1.4
	c-0.2,0-0.3,0-0.5,0L227.3,0.9L227.3,0.9z M258,0.9c-0.6-0.2-1.3,0.2-1.4,0.9c0,0.2,0,0.3,0,0.5v7.6c0.1,1.9-0.1,3.8-0.6,5.7
	c-0.4,1.2-1.1,2.2-2,3.1h-0.7c-0.6-0.1-1.2,0.3-1.4,0.9c0,0.2,0,0.3,0,0.5V28c-0.1,0.6,0.3,1.2,0.9,1.4c0.2,0,0.3,0,0.5,0h3.7
	c0.6,0.1,1.2-0.3,1.4-0.9c0-0.2,0-0.3,0-0.5v-3.7h12.1V28c-0.1,0.6,0.3,1.2,0.9,1.4c0.2,0,0.3,0,0.5,0h3.6c0.6,0.2,1.2-0.2,1.4-0.8
	c0-0.2,0-0.4,0-0.6v-8.1c0.2-0.6-0.2-1.2-0.8-1.4c-0.2,0-0.4,0-0.6,0h-1.6V2.3c0.1-0.6-0.3-1.2-0.9-1.4c-0.2,0-0.3,0-0.5,0H258
	L258,0.9z M267.2,6.7v11.9h-5.8c1.2-2.8,1.7-5.8,1.6-8.8V6.7H267.2L267.2,6.7z M295,10.8V6.7c0.1-0.6-0.2-1.2-0.9-1.4
	c-0.2,0-0.4,0-0.6,0H291c-0.6-0.2-1.2,0.2-1.4,0.8c0,0.2-0.1,0.4,0,0.6v4.1h-4.1c-0.6-0.1-1.3,0.2-1.4,0.9c0,0.2,0,0.4,0,0.5v2.6
	c-0.1,0.6,0.2,1.3,0.9,1.4c0.2,0,0.4,0,0.5,0h4.1v4.2c-0.1,0.6,0.2,1.2,0.9,1.4c0.2,0,0.4,0,0.6,0h2.6c0.6,0.2,1.2-0.2,1.4-0.8
	c0-0.2,0.1-0.4,0-0.6v-4.2h4.2c0.6,0.1,1.2-0.2,1.4-0.9c0-0.2,0-0.4,0-0.6v-2.6c0.2-0.6-0.2-1.2-0.8-1.4c-0.2,0-0.4-0.1-0.6,0
	C299.1,10.8,295,10.8,295,10.8z"/>
<path id="Shape_665_copy" class="st1" d="M18.6,12.3h7.2v7.2h5.2v-7.2h7.2V7.2h-7.2V0h-5.2v7.2h-7.2V12.3z"/>
<path id="Shape_665_copy_2" class="st0" d="M14.9,13l3.7-6.5H25V0H14.9L7.4,13c-0.2,0-0.4,0-0.6,0c-3.7,0-6.7,2.8-7,6.5h18.8V26H25
	V13H14.9z M10.8,20.1H3.4L0,26h7.5L10.8,20.1z"/>
</svg>
