<svg id="Слой_1" xmlns="http://www.w3.org/2000/svg" xmlns:xlink="http://www.w3.org/1999/xlink" x="0px" y="0px"
	 viewBox="0 0 120 30" style="enable-background:new 0 0 120 30;" xml:space="preserve">
<style type="text/css">
	.st0{fill-rule:evenodd;clip-rule:evenodd;fill:#FFFFFF;}
	.st1{fill-rule:evenodd;clip-rule:evenodd;fill:#DA2C23;}
</style>
<path class="st0" d="M27.5,10.4c-0.1-0.3-0.4-0.4-0.6-0.4h-1.4c-0.3-0.1-0.6,0.1-0.6,0.4c0,0,0,0,0,0l-2.8,7.7
	c-0.1,0.3,0,0.5,0.3,0.5h1.3c0.6,0,0.8-0.1,0.9-0.5l0.3-0.9h2.6l0.3,0.9c0.1,0.4,0.3,0.5,0.9,0.5H30c0.2,0,0.4-0.1,0.4-0.2
	c0-0.1,0-0.2,0-0.3L27.5,10.4z M26.9,15.3h-1.5l0.5-1.4c0.2-0.6,0.2-1.1,0.2-1.7h0.1l0,0.3c0,0.5,0.1,1,0.3,1.5L26.9,15.3z M35.1,10
	c-0.2-0.1-0.4,0.1-0.5,0.3c0,0.1,0,0.1,0,0.2v2.8c0.1,0.8-0.1,1.6-0.4,2.3c-0.2,0.4-0.5,0.7-0.9,0.9c-0.4,0.2-0.4,0.4-0.3,0.7
	l0.7,1.2c0.2,0.4,0.4,0.4,0.7,0.3c0.8-0.4,1.4-0.9,1.8-1.7c0.5-0.8,0.7-2.1,0.7-3.8v-1.1h1.5v6c-0.1,0.2,0.1,0.5,0.3,0.5
	c0.1,0,0.1,0,0.2,0h1.4c0.2,0.1,0.5-0.1,0.5-0.3c0-0.1,0-0.1,0-0.2v-7.6c0-0.2-0.1-0.5-0.3-0.5c-0.1,0-0.1,0-0.2,0H35.1L35.1,10z
	 M48.6,18.6c1.9,0,3.1-1.1,3.1-3c0-1.9-1.2-3-3.1-3h-1.5v-2.1c0.1-0.2-0.1-0.5-0.3-0.5c-0.1,0-0.1,0-0.2,0h-1.4
	c-0.2-0.1-0.5,0.1-0.5,0.3c0,0.1,0,0.1,0,0.2v7.6c-0.1,0.2,0.1,0.5,0.3,0.5c0.1,0,0.1,0,0.2,0L48.6,18.6L48.6,18.6z M48.4,14.7
	c0.5,0,0.9,0.3,0.9,0.7c0,0,0,0.1,0,0.1c0,0.5-0.3,0.9-0.8,0.9c0,0-0.1,0-0.1,0h-1.2v-1.8H48.4z M54.3,10c-0.2-0.1-0.5,0.1-0.5,0.3
	c0,0.1,0,0.1,0,0.2v1.1c-0.1,0.2,0.1,0.5,0.3,0.5c0.1,0,0.1,0,0.2,0h1.8v6c-0.1,0.2,0.1,0.5,0.3,0.5c0.1,0,0.1,0,0.2,0H58
	c0.2,0.1,0.5-0.1,0.5-0.3c0-0.1,0-0.1,0-0.2v-6h1.8c0.2,0.1,0.5-0.1,0.5-0.3c0-0.1,0-0.1,0-0.2v-1.1c0-0.2-0.1-0.5-0.3-0.5
	c-0.1,0-0.1,0-0.2,0C60.3,10,54.3,10,54.3,10z M68.5,10.4c-0.1-0.3-0.4-0.4-0.6-0.4h-1.4c-0.3-0.1-0.6,0.1-0.6,0.4c0,0,0,0,0,0
	L63,18.1c-0.1,0.3,0,0.5,0.3,0.5h1.3c0.6,0,0.8-0.1,0.9-0.5l0.3-0.9h2.6l0.3,0.9c0.1,0.4,0.3,0.5,0.9,0.5h1.3c0.2,0,0.4-0.1,0.4-0.2
	c0-0.1,0-0.2,0-0.3L68.5,10.4z M67.9,15.3h-1.5l0.5-1.4c0.2-0.5,0.2-1.1,0.2-1.7h0.1l0,0.3c0,0.5,0.1,1,0.3,1.5L67.9,15.3z M81.5,10
	c-0.3-0.1-0.6,0.1-0.7,0.4l-2,3.9l-2-3.9c-0.1-0.3-0.4-0.4-0.7-0.4H75c-0.2-0.1-0.5,0.1-0.5,0.3c0,0.1,0,0.1,0,0.2v7.6
	c0,0.2,0.1,0.5,0.3,0.5c0.1,0,0.1,0,0.2,0h1.2c0.2,0.1,0.4-0.1,0.5-0.3c0-0.1,0-0.1,0-0.2v-1.7c0-1.1-0.2-2.1-0.5-3.2h0.1
	c0.2,0.7,0.4,1.4,0.8,2l0.7,1.4c0.1,0.2,0.3,0.4,0.6,0.3h0.8c0.2,0,0.5-0.1,0.6-0.3l0.7-1.4c0.1-0.2,0.3-0.6,0.5-1
	c0.1-0.3,0.3-0.7,0.4-1h0.1c-0.3,1-0.5,2.1-0.5,3.2v1.7c-0.1,0.2,0.1,0.4,0.3,0.5c0.1,0,0.1,0,0.2,0h1.3c0.2,0.1,0.5-0.1,0.5-0.3
	c0-0.1,0-0.1,0-0.2v-7.6c0.1-0.2-0.1-0.5-0.3-0.5c-0.1,0-0.1,0-0.2,0H81.5L81.5,10z M87.8,10c-0.2-0.1-0.5,0.1-0.5,0.3
	c0,0.1,0,0.1,0,0.2v7.6c-0.1,0.2,0.1,0.5,0.3,0.5c0.1,0,0.1,0,0.2,0H93c0.2,0,0.5-0.1,0.5-0.3c0-0.1,0-0.1,0-0.2V17
	c0.1-0.2-0.1-0.5-0.3-0.5c-0.1,0-0.1,0-0.2,0h-3.3v-1.2h2.5c0.2,0.1,0.5-0.1,0.5-0.3c0-0.1,0-0.1,0-0.2v-1.1c0-0.2-0.1-0.5-0.3-0.5
	c-0.1,0-0.1,0-0.2,0h-2.5v-1.1h3.2c0.2,0.1,0.5-0.1,0.5-0.3c0-0.1,0-0.1,0-0.2v-1.1c0-0.2-0.1-0.5-0.3-0.5c-0.1,0-0.1,0-0.2,0
	L87.8,10L87.8,10z M99.1,10c-0.2-0.1-0.5,0.1-0.5,0.3c0,0.1,0,0.1,0,0.2v2.8c0,0.7,0,1.4-0.2,2.1c-0.1,0.4-0.4,0.8-0.7,1.1h-0.3
	c-0.2-0.1-0.5,0.1-0.5,0.3c0,0.1,0,0.1,0,0.2v3c-0.1,0.2,0.1,0.5,0.3,0.5c0.1,0,0.1,0,0.2,0h1.3c0.2,0.1,0.5-0.1,0.5-0.3
	c0-0.1,0-0.1,0-0.2v-1.3h4.4V20c0,0.2,0.1,0.5,0.3,0.5c0.1,0,0.1,0,0.2,0h1.3c0.2,0.1,0.4-0.1,0.5-0.3c0-0.1,0-0.1,0-0.2v-3
	c0.1-0.2-0.1-0.4-0.3-0.5c-0.1,0-0.1,0-0.2,0h-0.6v-6c0-0.2-0.1-0.5-0.3-0.5c-0.1,0-0.1,0-0.2,0H99.1L99.1,10z M102.5,12.1v4.4h-2.1
	c0.4-1,0.6-2.1,0.6-3.2v-1.1H102.5L102.5,12.1z M112.6,13.6v-1.5c0.1-0.2-0.1-0.5-0.3-0.5c-0.1,0-0.1,0-0.2,0h-1
	c-0.2-0.1-0.5,0.1-0.5,0.3c0,0.1,0,0.1,0,0.2v1.5h-1.5c-0.2-0.1-0.5,0.1-0.5,0.3c0,0.1,0,0.1,0,0.2v1c-0.1,0.2,0.1,0.5,0.3,0.5
	c0.1,0,0.1,0,0.2,0h1.5v1.5c-0.1,0.2,0.1,0.5,0.3,0.5c0.1,0,0.1,0,0.2,0h1c0.2,0.1,0.5-0.1,0.5-0.3c0-0.1,0-0.1,0-0.2v-1.5h1.5
	c0.2,0.1,0.5-0.1,0.5-0.3c0-0.1,0-0.1,0-0.2v-1c0.1-0.2-0.1-0.5-0.3-0.5c-0.1,0-0.1,0-0.2,0C114.1,13.6,112.6,13.6,112.6,13.6z"/>
<path id="Shape_665_copy" class="st1" d="M11.4,14.2H14v2.6h1.9v-2.6h2.6v-1.9h-2.6V9.7H14v2.6h-2.6V14.2z"/>
<path id="Shape_665_copy_2" class="st0" d="M10,14.4l1.4-2.4h2.4V9.7H10l-2.7,4.8c-0.1,0-0.1,0-0.2,0c-1.3,0-2.5,1-2.6,2.4h6.9v2.4
	h2.3v-4.7H10z M8.5,17H5.8l-1.2,2.1h2.7L8.5,17z"/>
</svg>
